<?xml version="1.0" encoding="UTF-8" standalone="no"?>
<svg height="128" version="1.1" viewBox="0 0 33.87 33.87" width="128" xmlns="http://www.w3.org/2000/svg">
  <path d="M 1.4247897,0.40033628 A 2.7665916,2.762797 0 0 0 0,2.8166604 V 22.267071 a 2.7665916,2.762797 0 0 0 1.300808,2.342437 l 14.167908,8.840551 a 2.7665916,2.762797 0 0 0 2.932568,0 L 32.569192,24.609508 A 2.7665916,2.762797 0 0 0 33.87,22.267071 V 2.8166604 A 2.7665916,2.762797 0 0 0 29.636625,0.47422388 L 16.9385,8.4001664 4.240374,0.47422388 A 2.7665916,2.762797 0 0 0 1.4337883,0.40083553 Z" fill="#25874c"/>
  <path d="m 5.5321833,7.789096 9.9315337,6.199569 a 2.7665916,2.762797 0 0 0 2.932567,0 L 28.327818,7.789096 V 20.719425 L 16.929501,27.832604 5.5311835,20.719425 Z" fill="#2ca05a"/>
  <path d="M 2.838581,9.43869e-4 A 2.7665916,2.762797 0 0 0 1.4247897,0.34661801 2.7665916,2.762797 0 0 0 0,2.7619436 V 22.212354 a 2.7665916,2.762797 0 0 0 1.300808,2.343435 l 14.167908,8.840551 a 2.7665916,2.762797 0 0 0 1.465784,0.419962 2.7665916,2.762797 0 0 0 0.001,0 V 8.3450502 L 4.2373745,0.41910773 A 2.7665916,2.762797 0 0 0 2.8435802,1.4508416e-4 Z" fill="#e5bf25"/>
  <path d="M 5.5321833,7.789096 V 20.719425 L 16.930501,27.832604 V 14.403034 A 2.7665916,2.762797 0 0 1 15.463717,13.983073 L 5.5321833,7.7835045 Z" fill="#ffd42a"/>
</svg>
